<svg width="885" height="1353" viewBox="0 0 885 1353" fill="none" xmlns="http://www.w3.org/2000/svg">
<path fill-rule="evenodd" clip-rule="evenodd" d="M275.382 13.1358C210.965 36.6139 174.018 67.243 141.989 123.722C118.551 165.047 109.125 204.681 109.125 261.894C109.125 291.454 104.842 318.658 96.8542 339.838C90.1056 357.729 82.4645 387.676 79.8768 406.381C75.7287 436.355 71.9722 443.148 48.2267 463.599C5.57093 500.327 -12.5431 564.839 9.29528 602.25C24.3914 628.111 60.5555 636.815 96.5654 623.252C104.322 620.328 109.568 628.003 120.645 658.478C128.434 679.908 134.874 702.38 134.945 708.416C135.022 714.452 116.233 752.669 93.1943 793.345C43.5651 880.965 32.0711 917.397 32.0711 987.052C32.0711 1157.08 156.013 1304.21 333.866 1345.31C390.141 1358.31 506.923 1354.25 560.373 1337.44C688.77 1297.04 784.131 1211.25 823.666 1100.55C834.987 1068.86 837.857 1047.35 837.729 995.301C837.517 913.864 827.744 880.305 776.085 783.696L737.051 710.697L752.147 672.376C760.443 651.299 769.696 633.117 772.701 631.974C786.045 626.899 823.294 594.046 830.974 580.592C835.616 572.451 843.116 551.709 847.63 534.5C852.15 517.291 861.134 497.193 867.587 489.837C892.296 461.677 890.357 410.124 864.01 394.832C856.016 390.19 832.521 384.513 811.8 382.22L774.12 378.05L768.598 353.303C763.609 330.963 764.527 327.652 778.025 319.284C836.778 282.858 873.944 232.63 875.504 187.54C877.559 127.983 815.678 107.6 686.638 125.338L642.043 131.471L609.771 100.182C541.86 34.3498 458.199 -0.0284268 365.972 1.76368e-05C323.688 0.0113954 303.282 2.96974 275.382 13.1358ZM443.957 39.3615C493.413 52.9068 536.011 76.1345 575.456 111.081L604.993 137.251L573.774 150.289C556.603 157.463 532.441 172.772 520.08 184.309L497.606 205.295L528.948 193.422C629.028 155.523 783.605 137.842 828.553 159.158C845.081 166.992 845.241 197.871 828.906 226.242C815.19 250.056 760.488 297.768 735.189 307.98C723.791 312.582 719.958 317.44 722.873 323.601C733.841 346.784 743.472 380.201 740.056 383.227C737.969 385.076 728.53 386.589 719.085 386.589C704.592 386.589 700.695 383.011 694.177 363.737C683.133 331.071 651.829 301.256 628.572 301.256C618.343 301.256 609.976 298.792 609.976 295.789C609.976 290.282 582.288 282.67 537.738 275.934C516.42 272.714 513.659 273.63 513.659 283.933C513.659 298.764 503.269 298.889 492.906 284.189C477.854 262.833 370.293 270.581 284.629 299.196C265.988 305.42 256.677 312.343 253.935 322.003C249.363 338.148 232.135 346.039 224.706 335.389C212.153 317.401 184.715 345.282 166.884 394.144C158.298 417.679 151.762 425.45 134.245 432.965L112.336 442.363L110.371 426.388C109.286 417.605 115.79 390.918 124.818 367.093C137.661 333.187 141.25 312.36 141.308 271.269C141.43 188.604 161.207 136.295 209.719 90.3512C238.955 62.6576 272.929 43.0423 308.181 33.5077C338.515 25.3043 402.72 28.0748 443.957 39.3615ZM425.4 105.495C429.201 147.456 440.843 162.105 465.166 155.518C487.865 149.374 494.395 141.261 494.395 119.211C494.395 92.9908 479.954 79.6732 462.187 89.5036C452.048 95.1128 449.986 94.2254 448.259 83.5303C447.148 76.6183 440.766 70.0475 434.068 68.9154C422.825 67.0153 422.164 69.7914 425.4 105.495ZM471.921 122.055C471.921 133.638 468.383 139.571 460.684 140.886C451.643 142.427 449.447 138.752 449.447 122.055C449.447 105.358 451.643 101.683 460.684 103.225C468.383 104.539 471.921 110.473 471.921 122.055ZM342.387 294.144C343.96 296.494 340.428 312.474 334.527 329.66C327.207 350.988 320.022 361.552 311.874 362.94C301.266 364.755 300.315 362.058 303.301 338.575C307.372 306.575 331.978 278.608 342.387 294.144ZM543.241 338.814C554.658 363.02 552.86 383.745 539.343 383.745C529.314 383.745 514.648 353.275 514.018 331.122C513.447 310.836 532.402 315.825 543.241 338.814ZM665.089 338.484C675.068 359.652 672.897 369.522 658.257 369.522C648.304 369.522 632.63 332.954 638.794 324.125C646.371 313.265 655.56 318.282 665.089 338.484ZM229.008 367.15C234.55 379.939 208.184 402.671 198.135 393.768C192.491 388.768 193.281 383.671 201.423 372.657C213.7 356.057 223.371 354.128 229.008 367.15ZM414.131 405.937C438.852 410.073 477.142 417.798 499.211 423.106C536.736 432.134 541.95 432.146 579.476 423.305C601.552 418.111 631.166 411.302 645.293 408.179C673.045 402.046 799.779 406.017 831.506 414.015C849.325 418.51 850.744 420.796 850.43 444.496C850.198 461.745 845.582 475.199 836.309 485.644C828.726 494.183 820.674 512.103 818.414 525.472C805.449 602.056 719.586 641.725 637.902 608.86C604.505 595.429 584.677 572.138 568.239 527.059C556.282 494.268 554.067 491.834 536.184 491.834C518.34 491.834 515.906 494.473 502.107 528.811C476.897 591.537 433.844 619.584 362.761 619.584C290.774 619.584 246.467 589.785 226.215 527.747L215.074 493.625L189.39 496.874C114.853 506.295 92.854 520.05 86.6319 561.113C80.7372 600.065 79.1703 602.767 62.4496 602.767C41.0414 602.767 32.0711 592.293 32.0711 567.313C32.0711 539.933 46.8784 508.013 69.3332 487.009C93.4897 464.413 220.796 408.719 260.023 403.588C310.711 396.954 365.432 397.79 414.131 405.937ZM323.689 451.562C295.545 462.422 276.076 486.645 276.076 510.8V531.081L309.485 497.87C327.862 479.603 351.704 459.902 362.46 454.088L382.025 443.518L362.761 443.722C352.166 443.83 334.585 447.364 323.689 451.562ZM662.707 449.901C636.907 456.489 616.378 484.045 616.622 511.745L616.802 531.656L630.986 514.589C638.788 505.202 656.029 486.998 669.308 474.129C702.492 441.976 701.921 439.877 662.707 449.901ZM202.56 537.163C214.092 561.619 214.875 587.538 203.979 584.318C188.69 579.806 176.027 517.434 190.404 517.434C191.971 517.434 197.442 526.314 202.56 537.163ZM163.211 547.3C165.606 560.601 175.681 593.238 185.608 619.834C219.409 710.458 217.675 726.216 163.57 819.804C144.3 853.13 124.215 896.65 118.924 916.515C81.7517 1056.23 154.009 1196.94 292.95 1255.4C345.784 1277.63 400.344 1285.47 430.184 1275.11L446.236 1269.54L428.193 1263.28C401.911 1254.15 413.077 1245.62 451.431 1245.53C469.764 1245.48 489.098 1242.96 494.395 1239.92C501.542 1235.83 497.67 1234.39 479.415 1234.32C442.435 1234.19 453.287 1220.76 493.978 1216.3C512.599 1214.25 531.143 1209.59 535.189 1205.94C540.782 1200.9 538.688 1200.09 526.501 1202.6C517.672 1204.42 506.114 1203.32 500.816 1200.16C492.257 1195.05 492.257 1193.79 500.816 1188.81C506.114 1185.73 515.315 1183.17 521.268 1183.12C527.22 1183.07 540.223 1180.21 550.163 1176.76C568.052 1170.55 568.091 1170.43 553.791 1165.56C534.142 1158.87 535.536 1155.42 561.817 1145.69C584.754 1137.2 592.016 1126.15 574.66 1126.15C561.374 1126.15 562.524 1116.25 576.265 1112.32C582.442 1110.55 592.697 1100.99 599.054 1091.08C609.045 1075.49 611.832 1074.15 619.749 1081.16C636.836 1096.3 606.393 1171.39 563.879 1218.97C553.207 1230.91 545.932 1241.97 547.71 1243.54C550.927 1246.39 603.555 1224.61 603.555 1220.43C603.555 1219.22 597.776 1219.57 590.713 1221.21C565.908 1226.95 578.031 1211.01 606.766 1200.1C638.223 1188.15 645.209 1180.7 619.608 1186.39C594.469 1191.98 600.357 1179.02 628.803 1166.17C660.948 1151.64 665.892 1144.59 641.742 1147.73C614.612 1151.26 618.343 1140.58 649.64 1125.15C681.161 1109.6 691.782 1094.22 664.691 1103.34C626.748 1116.12 624.193 1103.12 661.346 1086.32C690.433 1073.18 696.553 1057.84 670.977 1062.17C648.702 1065.95 650.699 1054.42 674.188 1043.66C698.415 1032.56 700.778 1016.21 677.398 1021.41C668.569 1023.37 661.346 1022.57 661.346 1019.63C661.346 1016.7 668.569 1010.87 677.398 1006.68C697.002 997.383 699.577 981.437 680.609 986.767C665.147 991.114 662.09 974.121 677.398 968.916C692.186 963.887 689.303 950.33 674.188 953.828C659.072 957.333 657.236 948.515 670.977 938.412C685.322 927.865 683.12 916.634 654.924 856.617C627.628 798.505 624.289 784.812 637.44 784.812C651.399 784.812 680.089 830.676 701.491 887.212C720.151 936.506 721.961 947.577 722.058 1013.1C722.16 1084.69 725.699 1094.27 742.971 1069.77C749.521 1060.47 748.802 1059.51 737.289 1062.18C725.833 1064.83 724.992 1063.76 730.9 1053.98C734.637 1047.79 742.188 1039.42 747.678 1035.38C753.168 1031.35 757.663 1024.2 757.663 1019.51C757.663 1012.51 755.904 1012.27 747.877 1018.17C731.94 1029.89 728.588 1019.14 743.723 1004.87C761.233 988.355 761.323 984.139 744.095 988.133C732.03 990.926 731.317 989.959 737.706 979.383C741.655 972.841 747.762 965.917 751.274 963.995C764.161 956.94 758.081 945.068 743.338 948.487C729.237 951.752 729.185 951.565 740.127 936.774C753.714 918.404 754.151 913.449 741.816 917.642C730.791 921.391 722.276 912.436 731.876 907.18C742.914 901.133 739.851 879.811 728.498 883.674C720.292 886.461 719.316 883.628 722.803 867.147C726.463 849.853 725.564 847.742 715.913 851.025C706.929 854.08 705.62 852.538 709.068 842.929C711.848 835.164 706.762 819.559 694.389 797.833C665.346 746.861 659.329 721.255 667.857 684.875C676.358 648.585 687.396 636.9 713.171 636.9C735.195 636.9 734.515 634.79 722.347 665.345C706.313 705.605 709.96 728.97 740.795 783.503C796.235 881.546 804.827 909.353 805.353 992.456C805.918 1081.72 793.557 1120.45 744.936 1181.79C684.706 1257.77 602.207 1306.16 505.067 1322.49C442.416 1333.02 413.379 1333 356.34 1322.39C248.824 1302.39 157.053 1239.27 108.99 1152.25C75.9598 1092.46 64.177 1049.7 64.177 989.612C64.177 924.451 76.3709 885.835 121.98 806.549C172.361 718.963 173.382 711.499 145.54 634.056C108.791 531.821 108.419 523.122 140.788 523.122C157.078 523.122 159.281 525.5 163.211 547.3ZM552.186 551.408C552.186 556.812 560.803 572.496 571.334 586.269C581.864 600.036 590.533 615.208 590.597 619.987C590.957 646.662 543.267 668.007 514.153 654.2C497.753 646.424 502.319 636.9 522.443 636.9C530.386 636.9 542.194 633.464 548.686 629.26C560.045 621.899 559.968 621 546.522 604.895C522.597 576.223 519.341 517.434 542.631 534.557C547.883 538.42 552.186 546.003 552.186 551.408ZM231.493 620.443C236.348 628.481 236.611 634.317 232.283 638.152C222.728 646.617 211.864 638.203 211.864 622.343C211.864 605.282 221.759 604.326 231.493 620.443ZM300.977 646.856C318.937 685.893 319.945 759.598 302.723 774.856C289.566 786.513 283.171 771.568 283.184 729.191C283.19 705.031 280.153 676.313 276.429 665.384C266.925 637.497 267.901 631.211 281.72 631.211C288.854 631.211 296.72 637.606 300.977 646.856ZM637.022 657.426C636.008 663.343 634.499 686.109 633.683 708.012C632.2 747.51 629.452 753.585 615.004 749.319C604.544 746.229 604.833 671.699 615.37 655.042C624.963 639.875 639.758 641.503 637.022 657.426ZM445.273 673.372C459.426 692.509 494.447 701.492 536.666 696.821C565.664 693.613 571.449 694.438 571.449 701.782C571.449 726.432 501.921 738.936 465.5 720.84C454.905 715.572 436.849 707.3 425.368 702.453C401.719 692.464 402.386 693.761 410.76 674.248C418.619 655.935 432.123 655.588 445.273 673.372ZM252.914 674.345C258.886 688.135 257.544 715.47 250.712 719.213C242.114 723.923 231.127 703.483 231.127 682.787C231.127 664.059 245.967 658.308 252.914 674.345ZM593.557 817.967C612.474 868.291 614.285 887.212 600.184 887.212C589.14 887.212 582.519 873.877 564.187 814.689C541.912 742.776 566.319 745.501 593.557 817.967ZM239.295 774.953C244.83 787.724 216.16 841.689 203.837 841.695C188.401 841.701 189.743 829.254 208.762 796.002C225.04 767.54 233.548 761.675 239.295 774.953ZM378.198 809.325C377.202 847.708 364.007 889.686 352.301 891.683C346.586 892.662 340.371 889.926 338.502 885.602C334.213 875.703 352.301 795.763 360.97 786.296C371.706 774.572 378.846 784.117 378.198 809.325ZM288.918 815.088C288.918 827.649 268.884 875.584 262.071 879.316C248.952 886.495 242.14 871.607 249.717 852.339C263.381 817.625 288.918 793.357 288.918 815.088ZM192.112 877.256C191.162 902.219 175.925 929.878 163.134 929.878C149.084 929.878 149.379 914.143 164.013 882.945C174.037 861.561 192.857 857.755 192.112 877.256ZM547.492 877.256C551.608 887.695 545.649 898.59 535.825 898.59C524.543 898.59 518.044 888.731 522.52 878.406C526.906 868.285 543.659 867.511 547.492 877.256ZM253.081 914.911C254.976 917.625 252.825 942.576 248.298 970.355C242.024 1008.87 237.568 1021.29 229.541 1022.66C214.278 1025.26 208.717 990.971 218.445 954.21C228.674 915.559 242.551 899.813 253.081 914.911ZM626.716 936.142C636.752 957.435 640.458 1024.16 632.784 1045.57C628.013 1058.89 611.113 1062.31 607.106 1050.77C605.745 1046.86 603.016 1014.86 601.031 979.656C597.943 924.656 598.816 915.656 607.241 915.656C612.641 915.656 621.399 924.878 626.716 936.142ZM353.13 962.925C353.13 1007.4 341.726 1032.69 327.342 1020.14C310.422 1005.38 324.587 921.345 343.999 921.345C351.062 921.345 353.13 930.766 353.13 962.925ZM166.916 983.838C166.916 992.502 162.652 1002.73 157.444 1006.56C143.645 1016.71 130.366 990.527 140.666 973.478C150.381 957.395 166.916 963.921 166.916 983.838ZM565.028 980.635C565.028 990.966 551.627 1000.44 541.771 997.092C530.938 993.412 530.212 977.221 540.473 968.131C548.956 960.616 565.028 968.802 565.028 980.635ZM430.184 989.612C435.006 997.593 435.044 1004.32 430.312 1012.16C420.924 1027.69 404.499 1020.5 404.499 1000.85C404.499 987.41 407.722 983.308 421.932 978.683C422.69 978.439 426.401 983.354 430.184 989.612ZM177.639 1072.11C186.34 1101.76 184.991 1114.77 173.208 1114.77C163.615 1114.77 147.652 1079.09 147.652 1057.65C147.652 1028.5 167.673 1038.16 177.639 1072.11ZM349.746 1064.99C368.842 1139.5 370.088 1154.59 357.124 1154.59C352.263 1154.59 344.776 1150.85 340.486 1146.27C331.664 1136.85 323.721 1074.69 329.602 1061.1C335.221 1048.13 345.951 1050.2 349.746 1064.99ZM250.59 1069.59C261.801 1088.14 261.878 1128.99 250.712 1128.99C239.693 1128.99 220.956 1080.42 226.787 1066.98C232.193 1054.48 242.127 1055.57 250.59 1069.59ZM439.815 1092.01C439.815 1099.31 436.207 1106.35 431.795 1107.66C421.945 1110.56 414.554 1095.28 419.871 1083.01C425.515 1069.96 439.815 1076.42 439.815 1092.01ZM551.03 1091.03C552.571 1100.32 549.778 1103.39 539.793 1103.39C531.182 1103.39 526.501 1099.71 526.501 1092.96C526.501 1071.33 547.479 1069.69 551.03 1091.03ZM716.998 1107.18C710.859 1112.62 711.72 1120.46 718.449 1120.46C721.602 1120.46 725.846 1116.62 727.882 1111.92C731.638 1103.25 724.793 1100.27 716.998 1107.18ZM220.924 1160.72C235.359 1175.91 243.013 1194.41 234.864 1194.41C223.544 1194.41 209.899 1184.8 201.995 1171.25C183.367 1139.34 194.655 1133.06 220.924 1160.72ZM699.873 1151.75C695.333 1156.59 693.066 1161.83 694.832 1163.4C696.598 1164.96 701.754 1162.28 706.294 1157.43C710.833 1152.59 713.1 1147.35 711.334 1145.78C709.569 1144.22 704.412 1146.9 699.873 1151.75ZM279.774 1158.94C290.35 1165.34 321.024 1207.5 321.024 1215.64C321.024 1230.5 301.182 1222.05 282.535 1199.25C257.955 1169.18 256.273 1144.73 279.774 1158.94ZM390.79 1197.84C401.083 1217.86 399.882 1234.23 388.118 1234.23C376.772 1234.23 357.027 1197.07 362.119 1185.31C366.864 1174.36 382.147 1181.04 390.79 1197.84ZM449.447 1194.41C449.447 1207.35 433.343 1209.91 428.103 1197.81C424.071 1188.51 428.809 1183.03 440.888 1183.03C445.594 1183.03 449.447 1188.15 449.447 1194.41ZM287.518 1233.36C289.361 1238.25 286.272 1240.3 278.952 1239.05C272.659 1237.96 266.213 1233.64 264.633 1229.42C262.79 1224.53 265.879 1222.48 273.199 1223.73C279.492 1224.82 285.939 1229.14 287.518 1233.36ZM382.583 1257.4C390.34 1263.11 390.61 1265.44 383.932 1269.16C370.845 1276.45 321.024 1260.95 321.024 1249.59C321.024 1242.16 370.377 1248.43 382.583 1257.4Z" fill="white"></path>
</svg>