<svg xmlns="http://www.w3.org/2000/svg" viewBox="0 0 512 512"><g transform="translate(128.5,36) scale(0.676)" fill="#ffffff"><path fill-rule="evenodd" clip-rule="evenodd" d="M117.104 6.32033C89.7111 17.6169 73.9996 32.3542 60.3796 59.5294C50.4131 79.4126 46.4046 98.4828 46.4046 126.011C46.4046 140.234 44.5833 153.323 41.1865 163.514C38.3167 172.122 35.0674 186.531 33.967 195.531C32.203 209.954 30.6056 213.222 20.508 223.062C2.36899 240.734 -5.33386 271.774 3.95274 289.774C10.3723 302.218 25.7507 306.405 41.0637 299.88C44.3622 298.473 46.593 302.165 51.3032 316.829C54.6154 327.14 57.3541 337.952 57.3841 340.856C57.4169 343.761 49.4274 362.149 39.6301 381.72C18.5257 423.879 13.638 441.408 13.638 474.923C13.638 556.733 66.3431 627.526 141.974 647.3C165.904 653.557 215.565 651.603 238.294 643.512C292.894 624.075 333.445 582.794 350.257 529.531C355.071 514.284 356.292 503.938 356.237 478.892C356.147 439.709 351.991 423.562 330.024 377.078L313.425 341.954L319.845 323.516C323.372 313.374 327.307 304.626 328.585 304.076C334.259 301.635 350.099 285.827 353.365 279.354C355.339 275.437 358.528 265.457 360.448 257.176C362.37 248.896 366.19 239.226 368.934 235.687C379.442 222.137 378.617 197.332 367.414 189.975C364.014 187.741 354.023 185.01 345.211 183.906L329.189 181.9L326.84 169.993C324.719 159.244 325.109 157.651 330.849 153.624C355.833 136.098 371.638 111.931 372.301 90.2355C373.175 61.5795 346.861 51.7721 291.988 60.3068L273.024 63.2575L259.3 48.2027C230.422 16.5275 194.845 -0.0136777 155.627 8.48599e-06C137.646 0.00548294 128.968 1.4289 117.104 6.32033ZM188.789 18.9389C209.82 25.4563 227.934 36.6323 244.708 53.4471L257.269 66.0385L243.993 72.3122C236.691 75.7639 226.416 83.1297 221.16 88.6808L211.603 98.7785L224.931 93.0658C267.489 74.8304 333.222 66.323 352.335 76.5794C359.364 80.3486 359.432 95.2064 352.486 108.857C346.653 120.315 323.392 143.272 312.633 148.185C307.787 150.4 306.156 152.737 307.396 155.702C312.06 166.856 316.156 182.935 314.703 184.391C313.816 185.28 309.802 186.008 305.785 186.008C299.622 186.008 297.965 184.287 295.193 175.013C290.497 159.296 277.185 144.95 267.295 144.95C262.945 144.95 259.388 143.765 259.388 142.32C259.388 139.67 247.613 136.008 228.669 132.767C219.603 131.217 218.429 131.658 218.429 136.615C218.429 143.751 214.011 143.811 209.604 136.738C203.204 126.463 157.464 130.191 121.036 143.959C113.109 146.954 109.15 150.285 107.984 154.933C106.04 162.701 98.7138 166.497 95.5545 161.373C90.2163 152.718 78.5486 166.133 70.9659 189.643C67.3151 200.967 64.5354 204.706 57.0865 208.322L47.7699 212.844L46.9343 205.158C46.4729 200.932 49.2389 188.091 53.0781 176.628C58.5392 160.314 60.0655 150.293 60.0901 130.522C60.142 90.7474 68.5521 65.5786 89.1814 43.4727C101.614 30.1479 116.061 20.7099 131.052 16.1223C143.951 12.1752 171.254 13.5083 188.789 18.9389ZM180.898 50.7592C182.514 70.949 187.465 77.9975 197.808 74.8277C207.461 71.8715 210.238 67.9682 210.238 57.3587C210.238 44.7428 204.097 38.335 196.541 43.0649C192.23 45.7638 191.353 45.3369 190.619 40.1909C190.146 36.8651 187.432 33.7035 184.584 33.1588C179.803 32.2446 179.522 33.5804 180.898 50.7592ZM200.681 58.7273C200.681 64.3003 199.176 67.1552 195.902 67.7875C192.058 68.5293 191.124 66.7611 191.124 58.7273C191.124 50.6935 192.058 48.9253 195.902 49.6671C199.176 50.2994 200.681 53.1543 200.681 58.7273ZM145.597 141.528C146.266 142.659 144.764 150.348 142.255 158.617C139.142 168.879 136.087 173.962 132.622 174.63C128.111 175.503 127.707 174.206 128.976 162.906C130.708 147.509 141.171 134.053 145.597 141.528ZM231.009 163.021C235.864 174.668 235.099 184.64 229.351 184.64C225.086 184.64 218.85 169.979 218.582 159.32C218.339 149.56 226.4 151.96 231.009 163.021ZM282.824 162.862C287.067 173.048 286.144 177.797 279.919 177.797C275.686 177.797 269.021 160.202 271.642 155.954C274.864 150.728 278.772 153.143 282.824 162.862ZM97.384 176.655C99.7405 182.809 88.5288 193.747 84.2555 189.463C81.8553 187.057 82.1912 184.604 85.6535 179.305C90.8743 171.318 94.9866 170.39 97.384 176.655ZM176.106 195.318C186.618 197.308 202.901 201.025 212.286 203.579C228.243 207.923 230.46 207.928 246.417 203.674C255.805 201.175 268.398 197.899 274.406 196.396C286.207 193.446 340.1 195.356 353.591 199.205C361.169 201.367 361.772 202.467 361.638 213.871C361.54 222.17 359.577 228.643 355.634 233.669C352.409 237.778 348.985 246.4 348.024 252.832C342.511 289.681 305.998 308.768 271.263 292.955C257.061 286.492 248.629 275.286 241.639 253.596C236.555 237.819 235.613 236.647 228.008 236.647C220.42 236.647 219.385 237.917 213.517 254.439C202.797 284.62 184.489 298.115 154.261 298.115C123.649 298.115 104.808 283.777 96.1961 253.927L91.4587 237.509L80.5365 239.072C48.8402 243.605 39.4854 250.224 36.8395 269.981C34.3329 288.723 33.6665 290.023 26.5562 290.023C17.4525 290.023 13.638 284.984 13.638 272.965C13.638 259.79 19.9347 244.432 29.4834 234.326C39.7557 223.454 93.8916 196.656 110.573 194.187C132.127 190.996 155.397 191.398 176.106 195.318ZM137.646 217.27C125.678 222.496 117.399 234.151 117.399 245.773V255.531L131.606 239.551C139.421 230.762 149.559 221.283 154.133 218.486L162.453 213.4L154.261 213.498C149.756 213.55 142.28 215.25 137.646 217.27ZM281.811 216.471C270.839 219.641 262.11 232.9 262.214 246.227L262.29 255.808L268.322 247.596C271.639 243.08 278.971 234.32 284.618 228.129C298.729 212.658 298.486 211.648 281.811 216.471ZM86.1368 258.457C91.0409 270.225 91.374 282.695 86.7403 281.146C80.2388 278.976 74.8542 248.965 80.9679 248.965C81.6341 248.965 83.9606 253.238 86.1368 258.457ZM69.404 263.335C70.4225 269.735 74.7068 285.438 78.9282 298.235C93.3018 341.839 92.5646 349.421 69.5569 394.451C61.3626 410.486 52.8214 431.426 50.5714 440.984C34.7643 508.21 65.4911 575.913 124.575 604.041C147.042 614.738 170.243 618.507 182.932 613.523L189.758 610.843L182.086 607.829C170.91 603.439 175.658 599.335 191.967 599.289C199.763 599.264 207.985 598.052 210.238 596.593C213.277 594.625 211.63 593.93 203.867 593.897C188.142 593.834 192.757 587.374 210.06 585.225C217.979 584.24 225.865 581.998 227.585 580.241C229.963 577.815 229.073 577.427 223.89 578.634C220.136 579.51 215.221 578.979 212.968 577.46C209.328 575.002 209.328 574.397 212.968 571.999C215.221 570.518 219.134 569.286 221.665 569.262C224.196 569.24 229.726 567.863 233.952 566.201C241.56 563.212 241.576 563.157 235.495 560.814C227.14 557.595 227.732 555.934 238.908 551.253C248.662 547.167 251.75 541.848 244.369 541.848C238.72 541.848 239.209 537.088 245.052 535.197C247.679 534.345 252.04 529.747 254.743 524.979C258.992 517.473 260.177 516.83 263.543 520.205C270.809 527.489 257.864 563.618 239.785 586.509C235.247 592.254 232.153 597.575 232.909 598.334C234.277 599.705 256.657 589.227 256.657 587.212C256.657 586.632 254.199 586.802 251.196 587.587C240.648 590.352 245.803 582.682 258.022 577.432C271.399 571.684 274.37 568.095 263.483 570.833C252.793 573.523 255.297 567.291 267.393 561.105C281.063 554.114 283.165 550.722 272.896 552.233C261.359 553.933 262.945 548.795 276.254 541.369C289.658 533.888 294.175 526.487 282.655 530.877C266.52 537.025 265.433 530.768 281.232 522.688C293.601 516.362 296.204 508.985 285.328 511.068C275.855 512.883 276.705 507.337 286.693 502.158C296.995 496.818 298 488.954 288.058 491.453C284.304 492.397 281.232 492.014 281.232 490.599C281.232 489.187 284.304 486.381 288.058 484.366C296.395 479.894 297.49 472.221 289.424 474.786C282.848 476.877 281.549 468.701 288.058 466.197C294.347 463.777 293.121 457.254 286.693 458.937C280.265 460.624 279.484 456.381 285.328 451.52C291.428 446.445 290.491 441.041 278.501 412.164C266.894 384.203 265.474 377.615 271.066 377.615C277.002 377.615 289.202 399.682 298.303 426.885C306.238 450.603 307.008 455.929 307.049 487.454C307.093 521.902 308.597 526.511 315.943 514.722C318.728 510.25 318.422 509.787 313.526 511.071C308.655 512.346 308.297 511.829 310.809 507.124C312.398 504.146 315.61 500.119 317.944 498.176C320.279 496.235 322.19 492.797 322.19 490.539C322.19 487.172 321.442 487.054 318.029 489.896C311.252 495.534 309.826 490.364 316.262 483.496C323.708 475.55 323.747 473.521 316.42 475.443C311.29 476.787 310.987 476.322 313.704 471.233C315.383 468.085 317.98 464.754 319.473 463.829C324.953 460.435 322.368 454.722 316.098 456.367C310.102 457.938 310.08 457.848 314.733 450.731C320.511 441.893 320.697 439.509 315.451 441.526C310.763 443.33 307.142 439.022 311.224 436.492C315.918 433.583 314.616 423.324 309.788 425.182C306.298 426.523 305.883 425.16 307.366 417.23C308.922 408.909 308.54 407.894 304.436 409.473C300.616 410.943 300.059 410.201 301.525 405.578C302.708 401.842 300.545 394.333 295.283 383.88C282.933 359.354 280.375 347.034 284.001 329.53C287.616 312.069 292.31 306.447 303.27 306.447C312.636 306.447 312.347 305.431 307.172 320.133C300.354 339.504 301.905 350.746 315.017 376.985C338.593 424.158 342.246 437.538 342.47 477.523C342.71 520.47 337.454 539.106 316.778 568.621C291.166 605.18 256.083 628.462 214.776 636.318C188.134 641.385 175.786 641.377 151.531 636.272C105.81 626.648 66.7854 596.278 46.3473 554.409C32.3013 525.638 27.2907 505.068 27.2907 476.155C27.2907 444.802 32.4761 426.222 51.8712 388.074C73.2951 345.931 73.7292 342.34 61.8895 305.078C46.2626 255.887 46.1042 251.702 59.8689 251.702C66.7963 251.702 67.7329 252.846 69.404 263.335ZM234.813 265.312C234.813 267.912 238.477 275.458 242.955 282.085C247.433 288.709 251.119 296.009 251.147 298.309C251.3 311.144 231.02 321.414 218.639 314.77C211.666 311.029 213.607 306.447 222.165 306.447C225.542 306.447 230.564 304.793 233.324 302.77C238.155 299.228 238.122 298.796 232.404 291.047C222.23 277.251 220.846 248.965 230.749 257.204C232.983 259.062 234.813 262.711 234.813 265.312ZM98.4407 298.528C100.505 302.396 100.617 305.204 98.7765 307.049C94.7135 311.122 90.0934 307.073 90.0934 299.442C90.0934 291.233 94.3012 290.773 98.4407 298.528ZM127.988 311.237C135.625 330.02 136.054 365.483 128.731 372.824C123.136 378.433 120.416 371.242 120.422 350.853C120.424 339.228 119.133 325.41 117.549 320.152C113.508 306.734 113.923 303.709 119.799 303.709C122.833 303.709 126.178 306.786 127.988 311.237ZM270.889 316.323C270.457 319.169 269.815 330.124 269.469 340.662C268.838 359.666 267.669 362.59 261.525 360.537C257.077 359.051 257.2 323.19 261.681 315.175C265.761 307.878 272.052 308.661 270.889 316.323ZM189.349 323.995C195.367 333.203 210.259 337.525 228.213 335.278C240.544 333.734 243.004 334.131 243.004 337.665C243.004 349.525 213.438 355.541 197.95 346.834C193.445 344.3 185.766 340.32 180.884 337.987C170.828 333.181 171.112 333.805 174.672 324.416C178.014 315.605 183.757 315.438 189.349 323.995ZM107.55 324.463C110.089 331.098 109.518 344.25 106.613 346.051C102.957 348.318 98.285 338.483 98.285 328.525C98.285 319.514 104.595 316.747 107.55 324.463ZM252.405 393.567C260.45 417.781 261.22 426.885 255.223 426.885C250.527 426.885 247.712 420.468 239.916 391.99C230.444 357.389 240.822 358.7 252.405 393.567ZM101.758 372.871C104.112 379.016 91.9201 404.981 86.6802 404.984C80.116 404.987 80.6867 398.998 88.7745 382.999C95.6965 369.304 99.3145 366.482 101.758 372.871ZM160.826 389.409C160.402 407.877 154.791 428.075 149.813 429.036C147.383 429.507 144.74 428.19 143.945 426.11C142.121 421.347 149.813 382.884 153.5 378.329C158.065 372.687 161.101 377.28 160.826 389.409ZM122.86 392.182C122.86 398.226 114.341 421.29 111.444 423.086C105.865 426.54 102.968 419.376 106.19 410.105C112.001 393.403 122.86 381.726 122.86 392.182ZM81.6943 422.094C81.2901 434.105 74.8105 447.414 69.3713 447.414C63.3968 447.414 63.5224 439.843 69.7453 424.832C74.0077 414.542 82.011 412.711 81.6943 422.094ZM232.817 422.094C234.567 427.117 232.033 432.359 227.855 432.359C223.058 432.359 220.294 427.616 222.197 422.647C224.062 417.778 231.186 417.406 232.817 422.094ZM107.621 440.212C108.426 441.518 107.512 453.523 105.587 466.889C102.919 485.42 101.024 491.396 97.6106 492.055C91.1201 493.309 88.7554 476.809 92.8922 459.121C97.242 440.524 103.143 432.948 107.621 440.212ZM266.506 450.427C270.774 460.673 272.349 492.775 269.086 503.081C267.058 509.489 259.871 511.134 258.167 505.58C257.588 503.699 256.428 488.303 255.584 471.365C254.27 444.901 254.642 440.571 258.224 440.571C260.521 440.571 264.245 445.008 266.506 450.427ZM150.165 463.314C150.165 484.711 145.316 496.884 139.2 490.845C132.005 483.739 138.028 443.308 146.283 443.308C149.286 443.308 150.165 447.841 150.165 463.314ZM70.9795 473.376C70.9795 477.545 69.1664 482.467 66.952 484.309C61.084 489.192 55.4372 476.595 59.817 468.392C63.9483 460.654 70.9795 463.793 70.9795 473.376ZM240.274 471.835C240.274 476.806 234.575 481.366 230.384 479.754C225.777 477.983 225.469 470.193 229.832 465.819C233.439 462.203 240.274 466.142 240.274 471.835ZM182.932 476.155C184.983 479.995 184.999 483.233 182.987 487.002C178.995 494.478 172.01 491.018 172.01 481.563C172.01 475.095 173.381 473.122 179.423 470.896C179.746 470.779 181.324 473.144 182.932 476.155ZM75.5396 515.847C79.2395 530.116 78.6661 536.374 73.6555 536.374C69.5761 536.374 62.7879 519.206 62.7879 508.889C62.7879 494.866 71.3018 499.514 75.5396 515.847ZM148.726 512.423C156.847 548.273 157.377 555.534 151.864 555.534C149.797 555.534 146.613 553.733 144.789 551.53C141.037 547 137.66 517.09 140.161 510.554C142.55 504.31 147.113 505.306 148.726 512.423ZM106.561 514.635C111.329 523.563 111.362 543.217 106.613 543.217C101.928 543.217 93.9599 519.849 96.4392 513.378C98.7383 507.367 102.962 507.893 106.561 514.635ZM187.028 525.425C187.028 528.937 185.493 532.325 183.617 532.952C179.429 534.351 176.286 526.996 178.547 521.092C180.947 514.815 187.028 517.922 187.028 525.425ZM234.321 524.954C234.976 529.424 233.789 530.899 229.543 530.899C225.881 530.899 223.89 529.131 223.89 525.882C223.89 515.475 232.811 514.684 234.321 524.954ZM304.898 532.725C302.287 535.339 302.653 539.111 305.515 539.111C306.855 539.111 308.66 537.263 309.526 535.005C311.123 530.834 308.212 529.399 304.898 532.725ZM93.9462 558.482C100.085 565.794 103.339 574.695 99.8742 574.695C95.0603 574.695 89.2579 570.069 85.8966 563.549C77.9753 548.196 82.7756 545.174 93.9462 558.482ZM297.615 554.166C295.685 556.498 294.721 559.019 295.472 559.772C296.223 560.524 298.415 559.235 300.346 556.903C302.276 554.571 303.24 552.05 302.489 551.297C301.738 550.545 299.546 551.834 297.615 554.166ZM118.972 557.628C123.469 560.708 136.513 580.993 136.513 584.91C136.513 592.06 128.075 587.992 120.146 577.022C109.693 562.555 108.978 550.788 118.972 557.628ZM166.18 576.343C170.557 585.975 170.047 593.856 165.044 593.856C160.219 593.856 151.823 575.976 153.988 570.315C156.006 565.046 162.505 568.26 166.18 576.343ZM191.124 574.695C191.124 580.919 184.276 582.154 182.047 576.332C180.333 571.854 182.348 569.221 187.484 569.221C189.485 569.221 191.124 571.684 191.124 574.695ZM122.265 593.434C123.048 595.788 121.735 596.773 118.622 596.171C115.946 595.648 113.205 593.568 112.533 591.54C111.749 589.186 113.063 588.201 116.176 588.803C118.852 589.326 121.593 591.406 122.265 593.434ZM162.691 605.002C165.989 607.747 166.104 608.872 163.264 610.66C157.699 614.166 136.513 606.71 136.513 601.243C136.513 597.671 157.5 600.685 162.691 605.002Z"/></g></svg>
